<?xml version="1.0" encoding="UTF-8"?>
<svg version="1.1" xmlns="http://www.w3.org/2000/svg" width="1397" height="861">
<path d="M0 0 C8.24964313 5.92394587 15.33066018 13.36475249 22.390625 20.625 C24.40653028 22.59143521 26.4424746 24.42067522 28.578125 26.25 C34.76687472 31.61705504 40.41281247 37.54129167 46.16015625 43.37109375 C49.99236605 47.23677263 53.80161087 51.06731424 57.9375 54.609375 C64.02890264 59.82617787 69.53403402 65.6642524 75.16015625 71.37109375 C79.70162146 75.95222242 84.28037588 80.39395638 89.17724609 84.59375 C101.93454589 95.57812131 113.69666091 109.99626905 115.13037109 127.45849609 C115.83165126 148.56065385 111.60202524 163.78942155 97.22265625 179.84375 C95.36246918 181.68803803 93.48330171 183.36524906 91.49182129 185.05993652 C86.00877722 189.84410071 80.91223553 195.01046463 75.78320312 200.16601562 C74.68194105 201.26920063 73.5804483 202.37215541 72.47874451 203.47489929 C70.12073338 205.83605347 67.76428047 208.19874763 65.40904236 210.56266785 C61.6788375 214.30648093 57.94474463 218.04640011 54.21008301 221.7857666 C46.28291285 229.7240016 38.3599839 237.66646345 30.4375 245.609375 C21.88231713 254.1866169 13.3263949 262.76311347 4.76556921 271.33472395 C1.05909115 275.04616084 -2.64494044 278.76001645 -6.34706879 282.47579193 C-8.65666421 284.79288717 -10.96836599 287.10787234 -13.28062248 289.42231178 C-14.34567533 290.48922434 -15.40986971 291.55699472 -16.47310066 292.62572289 C-21.50505656 297.68285739 -26.57583378 302.62009505 -31.99321747 307.26593781 C-36.55949261 311.3338412 -40.81329182 315.74001044 -45.125 320.07421875 C-46.21640996 321.16755169 -47.30805063 322.26065436 -48.39990234 323.35354614 C-50.73663271 325.69341931 -53.07180485 328.0348323 -55.40576172 330.37747192 C-59.10236095 334.08768073 -62.80284939 337.79399441 -66.50390625 341.49975586 C-74.35974697 349.36666087 -82.21134615 357.23779291 -90.0625 365.109375 C-98.54069348 373.60962824 -107.01962673 382.10913569 -115.50346375 390.6037569 C-119.17649051 394.2817421 -122.84707079 397.96214577 -126.51574707 401.64447021 C-128.8045832 403.94080685 -131.09552629 406.23503278 -133.38702393 408.52871323 C-134.44240154 409.58595034 -135.4969208 410.64404517 -136.55047607 411.7030983 C-145.48662398 420.68437573 -145.48662398 420.68437573 -150.0567627 424.6036377 C-155.38368012 429.17294028 -160.27057412 434.19421947 -165.21679688 439.16601562 C-166.31805895 440.26920063 -167.4195517 441.37215541 -168.52125549 442.47489929 C-170.87926662 444.83605347 -173.23571953 447.19874763 -175.59095764 449.56266785 C-179.3211625 453.30648093 -183.05525537 457.04640011 -186.78991699 460.7857666 C-194.71708715 468.7240016 -202.6400161 476.66646345 -210.5625 484.609375 C-219.11768287 493.1866169 -227.6736051 501.76311347 -236.23443079 510.33472395 C-239.94090885 514.04616084 -243.64494044 517.76001645 -247.34706879 521.47579193 C-249.65666421 523.79288717 -251.96836599 526.10787234 -254.28062248 528.42231178 C-255.34567533 529.48922434 -256.40986971 530.55699472 -257.47310066 531.62572289 C-262.5032313 536.68102299 -267.57224123 541.61616159 -272.98761749 546.26033783 C-277.58741046 550.3594558 -281.87268025 554.79943866 -286.21679688 559.16601562 C-287.31805895 560.26920063 -288.4195517 561.37215541 -289.52125549 562.47489929 C-291.87926662 564.83605347 -294.23571953 567.19874763 -296.59095764 569.56266785 C-300.3211625 573.30648093 -304.05525537 577.04640011 -307.78991699 580.7857666 C-315.71708715 588.7240016 -323.6400161 596.66646345 -331.5625 604.609375 C-340.11768287 613.1866169 -348.6736051 621.76311347 -357.23443079 630.33472395 C-360.94090885 634.04616084 -364.64494044 637.76001645 -368.34706879 641.47579193 C-370.65666421 643.79288717 -372.96836599 646.10787234 -375.28062248 648.42231178 C-376.34567533 649.48922434 -377.40986971 650.55699472 -378.47310066 651.62572289 C-383.5032313 656.68102299 -388.57224123 661.61616159 -393.98761749 666.26033783 C-398.58741046 670.3594558 -402.87268025 674.79943866 -407.21679688 679.16601562 C-408.31805895 680.26920063 -409.4195517 681.37215541 -410.52125549 682.47489929 C-412.87926662 684.83605347 -415.23571953 687.19874763 -417.59095764 689.56266785 C-421.3211625 693.30648093 -425.05525537 697.04640011 -428.78991699 700.7857666 C-436.71708715 708.7240016 -444.6400161 716.66646345 -452.5625 724.609375 C-461.11768287 733.1866169 -469.6736051 741.76311347 -478.23443079 750.33472395 C-481.94090885 754.04616084 -485.64494044 757.76001645 -489.34706879 761.47579193 C-491.65666421 763.79288717 -493.96836599 766.10787234 -496.28062248 768.42231178 C-497.34567533 769.48922434 -498.40986971 770.55699472 -499.47310066 771.62572289 C-504.61711512 776.79547665 -509.7972939 781.8594975 -515.33775139 786.60753632 C-517.83602226 788.78292571 -520.15558337 791.11361299 -522.4777832 793.47460938 C-522.95871429 793.96181961 -523.43964539 794.44902985 -523.93515015 794.95100403 C-524.963562 795.99310132 -525.99086318 797.03629573 -527.01711464 798.08052063 C-528.65119532 799.74166705 -530.28997297 801.39804525 -531.93022156 803.05310059 C-536.58837557 807.75357932 -541.24372299 812.45672468 -545.88256836 817.17626953 C-548.73588942 820.07853721 -551.59924656 822.97058095 -554.46907616 825.85652161 C-555.54947647 826.94671153 -556.62624196 828.04051795 -557.6989994 829.13822937 C-565.99136714 837.61921642 -574.63110102 844.89602624 -585.9375 848.984375 C-587.51144531 849.56832031 -587.51144531 849.56832031 -589.1171875 850.1640625 C-605.06678383 855.28316371 -623.39806337 853.08239655 -638.13671875 845.53515625 C-649.14328354 838.94963841 -657.89881167 829.38794166 -666.82275391 820.31298828 C-670.09759849 816.9968545 -673.38907961 813.77469401 -676.9296875 810.7421875 C-683.05669907 805.46919864 -688.61413723 799.60003853 -694.28515625 793.84765625 C-698.11736605 789.98197737 -701.92661087 786.15143576 -706.0625 782.609375 C-712.15390264 777.39257213 -717.65903402 771.5544976 -723.28515625 765.84765625 C-727.85752247 761.2353567 -732.47282932 756.77180281 -737.40039062 752.54052734 C-743.59996059 747.20241348 -747.77763963 741.29872745 -751.4375 734.046875 C-751.77136719 733.38631104 -752.10523438 732.72574707 -752.44921875 732.04516602 C-758.67192981 719.1243979 -759.38550219 702.74205444 -755.5 688.984375 C-750.81323757 676.49715331 -743.26978266 667.43960357 -734.0625 658.109375 C-733.5065918 657.53977051 -732.95068359 656.97016602 -732.37792969 656.38330078 C-722.73946652 646.51482254 -722.73946652 646.51482254 -717.54223633 642.09130859 C-712.18166832 637.41439572 -707.19815748 632.36935264 -702.18359375 627.328125 C-701.11188803 626.25449619 -700.03995152 625.18109773 -698.96780396 624.10791016 C-696.67363509 621.81059902 -694.38102449 619.51174839 -692.08963013 617.21166992 C-688.46024218 613.56866961 -684.82696259 609.92956699 -681.19311523 606.29101562 C-673.47993337 598.56677062 -665.77099372 590.83829817 -658.0625 583.109375 C-649.73828532 574.76309905 -641.41333002 566.41756985 -633.08347034 558.07692719 C-629.47734616 554.4658454 -625.87366849 550.85234562 -622.27189636 547.23692322 C-620.02457884 544.98210378 -617.77515311 542.72939635 -615.52517319 540.47723389 C-614.48914602 539.43934765 -613.45397699 538.40060393 -612.4197731 537.36090088 C-603.64964252 528.54564075 -603.64964252 528.54564075 -599.0682373 524.6151123 C-593.80753948 520.10077391 -588.97712363 515.14738772 -584.09179688 510.23632812 C-583.01023904 509.15284725 -581.92845045 508.06959668 -580.84645081 506.98655701 C-578.53100119 504.66796486 -576.21710982 502.34783304 -573.9044342 500.026474 C-570.24144061 496.34986945 -566.5745566 492.67716129 -562.90710449 489.00500488 C-555.1225932 481.20942987 -547.34232379 473.40962763 -539.5625 465.609375 C-531.16129591 457.1861104 -522.75935164 448.76359208 -514.3525033 440.34596014 C-510.71292783 436.70142665 -507.07579886 433.05447492 -503.44057465 429.4056015 C-501.17249781 427.13002347 -498.90231341 424.85655678 -496.63157463 422.58363533 C-495.58587224 421.53607365 -494.5410281 420.48765438 -493.49714851 419.43827629 C-488.51518515 414.43091699 -483.48987185 409.54900763 -478.12703705 404.94806671 C-473.62561678 400.93906908 -469.43315862 396.60028606 -465.18359375 392.328125 C-464.11188803 391.25449619 -463.03995152 390.18109773 -461.96780396 389.10791016 C-459.67363509 386.81059902 -457.38102449 384.51174839 -455.08963013 382.21166992 C-451.46024218 378.56866961 -447.82696259 374.92956699 -444.19311523 371.29101562 C-436.47993337 363.56677062 -428.77099372 355.83829817 -421.0625 348.109375 C-412.73828532 339.76309905 -404.41333002 331.41756985 -396.08347034 323.07692719 C-392.47734616 319.4658454 -388.87366849 315.85234562 -385.27189636 312.23692322 C-383.02457884 309.98210378 -380.77515311 307.72939635 -378.52517319 305.47723389 C-377.48914602 304.43934765 -376.45397699 303.40060393 -375.4197731 302.36090088 C-366.64964252 293.54564075 -366.64964252 293.54564075 -362.0682373 289.6151123 C-356.80753948 285.10077391 -351.97712363 280.14738772 -347.09179688 275.23632812 C-346.01023904 274.15284725 -344.92845045 273.06959668 -343.84645081 271.98655701 C-341.53100119 269.66796486 -339.21710982 267.34783304 -336.9044342 265.026474 C-333.24144061 261.34986945 -329.5745566 257.67716129 -325.90710449 254.00500488 C-318.1225932 246.20942987 -310.34232379 238.40962763 -302.5625 230.609375 C-294.16129591 222.1861104 -285.75935164 213.76359208 -277.3525033 205.34596014 C-273.71292783 201.70142665 -270.07579886 198.05447492 -266.44057465 194.4056015 C-264.17249781 192.13002347 -261.90231341 189.85655678 -259.63157463 187.58363533 C-258.58587224 186.53607365 -257.5410281 185.48765438 -256.49714851 184.43827629 C-251.5170102 179.43275135 -246.49346536 174.55294039 -241.13263702 169.95366669 C-236.59832942 165.91403756 -232.37329188 161.54037536 -228.09179688 157.23632812 C-227.01023904 156.15284725 -225.92845045 155.06959668 -224.84645081 153.98655701 C-222.53100119 151.66796486 -220.21710982 149.34783304 -217.9044342 147.026474 C-214.24144061 143.34986945 -210.5745566 139.67716129 -206.90710449 136.00500488 C-199.1225932 128.20942987 -191.34232379 120.40962763 -183.5625 112.609375 C-175.16129591 104.1861104 -166.75935164 95.76359208 -158.3525033 87.34596014 C-154.71292783 83.70142665 -151.07579886 80.05447492 -147.44057465 76.4056015 C-145.17249781 74.13002347 -142.90231341 71.85655678 -140.63157463 69.58363533 C-139.58587224 68.53607365 -138.5410281 67.48765438 -137.49714851 66.43827629 C-132.39766176 61.31279452 -127.25756942 56.29783754 -121.7657032 51.58966827 C-119.43603489 49.56489969 -117.26791046 47.40513612 -115.10620117 45.203125 C-114.22135544 44.30529297 -113.3365097 43.40746094 -112.42485046 42.48242188 C-111.96582525 42.01441162 -111.50680004 41.54640137 -111.03386497 41.06420898 C-109.56784332 39.57105317 -108.09707296 38.08272611 -106.62483215 36.59570312 C-102.44454231 32.37315561 -98.26710373 28.14791378 -94.10620117 23.90625 C-91.54468941 21.29571979 -88.97309017 18.69548666 -86.39501381 16.10131836 C-85.42624522 15.12277823 -84.4611066 14.14062813 -83.50002098 13.15454102 C-75.50835726 4.95958835 -67.04153044 -1.8408509 -56.1875 -5.765625 C-55.13820313 -6.15492187 -54.08890625 -6.54421875 -53.0078125 -6.9453125 C-35.59903284 -12.53274576 -15.33189833 -9.54166013 0 0 Z " fill="#9D38F8" transform="translate(757.0625,8.890625)"/>
<path d="M0 0 C3.52363528 2.81079459 6.74841845 5.8816047 10 9 C11.10709259 10.02200923 12.21661438 11.04139121 13.328125 12.05859375 C21.31861522 19.39573944 29.05078331 26.96136002 36.65820312 34.69506836 C39.97167937 38.04804449 43.2980579 41.31128572 46.87890625 44.37890625 C53.0027578 49.64697045 58.55559372 55.51334972 64.22265625 61.26171875 C68.65524665 65.73302173 73.12330646 70.0541623 77.90039062 74.15380859 C96.19513066 90.24041605 111.82026107 106.12744729 114.33984375 131.41015625 C114.93058439 150.85733816 107.31157464 165.9986722 94.29023743 179.89102173 C91.19859805 183.07181546 88.0535209 186.19863586 84.90625 189.32421875 C83.74820941 190.48106336 82.59054252 191.63828215 81.43322754 192.79585266 C79.02253609 195.20499152 76.60856096 197.61077113 74.19189453 200.01391602 C71.11394679 203.07484726 68.0426504 206.14234749 64.97357941 209.21217632 C62.58879791 211.59668434 60.20140734 213.97856574 57.81315613 216.35959816 C56.68041144 217.48919013 55.54824549 218.6193628 54.41670227 219.75015831 C52.82911304 221.33554896 51.23825575 222.91758896 49.64648438 224.4987793 C48.7468396 225.39461227 47.84719482 226.29044525 46.92028809 227.21342468 C44.79356058 229.28530074 42.58668877 231.23190038 40.33276367 233.16426086 C34.98186353 237.81169397 30.0244171 242.85161549 25.02929688 247.87304688 C23.94773904 248.95652775 22.86595045 250.03977832 21.78395081 251.12281799 C19.46850119 253.44141014 17.15460982 255.76154196 14.8419342 258.082901 C11.17894061 261.75950555 7.5120566 265.43221371 3.84460449 269.10437012 C-3.9399068 276.89994513 -11.72017621 284.69974737 -19.5 292.5 C-27.90120409 300.9232646 -36.30314836 309.34578292 -44.7099967 317.76341486 C-48.34957217 321.40794835 -51.98670114 325.05490008 -55.62192535 328.7037735 C-57.89000219 330.97935153 -60.16018659 333.25281822 -62.43092537 335.52573967 C-63.47662776 336.57330135 -64.5214719 337.62172062 -65.56535149 338.67109871 C-74.41849073 347.56936749 -74.41849073 347.56936749 -78.9942627 351.4942627 C-84.28806839 356.03608845 -89.14672364 361.023415 -94.0625 365.96484375 C-95.15390996 367.05817669 -96.24555063 368.15127936 -97.33740234 369.24417114 C-99.67413271 371.58404431 -102.00930485 373.9254573 -104.34326172 376.26809692 C-108.03986095 379.97830573 -111.74034939 383.68461941 -115.44140625 387.39038086 C-123.29724697 395.25728587 -131.14884615 403.12841791 -139 411 C-147.47819348 419.50025324 -155.95712673 427.99976069 -164.44096375 436.4943819 C-168.11399051 440.1723671 -171.78457079 443.85277077 -175.45324707 447.53509521 C-177.7420832 449.83143185 -180.03302629 452.12565778 -182.32452393 454.41933823 C-183.37990154 455.47657534 -184.4344208 456.53467017 -185.48797607 457.5937233 C-190.49493755 462.62597104 -195.54298262 467.53553919 -200.93309021 472.15893555 C-205.46661942 476.19709895 -209.69030557 480.57010287 -213.97070312 484.87304688 C-215.05226096 485.95652775 -216.13404955 487.03977832 -217.21604919 488.12281799 C-219.53149881 490.44141014 -221.84539018 492.76154196 -224.1580658 495.082901 C-227.82105939 498.75950555 -231.4879434 502.43221371 -235.15539551 506.10437012 C-242.9399068 513.89994513 -250.72017621 521.69974737 -258.5 529.5 C-266.90120409 537.9232646 -275.30314836 546.34578292 -283.7099967 554.76341486 C-287.34957217 558.40794835 -290.98670114 562.05490008 -294.62192535 565.7037735 C-296.89000219 567.97935153 -299.16018659 570.25281822 -301.43092537 572.52573967 C-302.47662776 573.57330135 -303.5214719 574.62172062 -304.56535149 575.67109871 C-309.6434813 580.77511467 -314.76317592 585.76475651 -320.23155403 590.45348549 C-322.96041579 592.83988823 -325.49353575 595.4005525 -328.02612305 597.99194336 C-328.57211655 598.5458223 -329.11811005 599.09970123 -329.6806488 599.67036438 C-330.85144189 600.85818546 -332.0211535 602.04707334 -333.18985558 603.23695183 C-335.69427588 605.78402573 -338.20853727 608.32129453 -340.72215748 610.8592844 C-345.38250345 615.56502134 -350.03893747 620.27446166 -354.6784668 625.00073242 C-357.92506235 628.30725998 -361.18420382 631.600974 -364.45154762 634.88699532 C-365.68191724 636.12897916 -366.90778097 637.37544612 -368.12866783 638.62675285 C-381.71670617 652.54469848 -396.65890136 662.84946421 -416.84008789 663.29248047 C-438.08916371 663.45625754 -453.63357946 656.00197703 -468.91430664 641.22680664 C-471.87286849 638.30978393 -474.78292995 635.34563781 -477.6875 632.375 C-479.64620365 630.37930326 -481.60828808 628.38701551 -483.57421875 626.3984375 C-484.0473349 625.91973206 -484.52045105 625.44102661 -485.00790405 624.94781494 C-488.20166097 621.74028369 -491.52031767 618.75210649 -494.96020508 615.81494141 C-500.29991632 611.06384465 -505.20699527 605.82590293 -510.22265625 600.73828125 C-514.05357264 596.87390707 -517.86133779 593.04447084 -521.99609375 589.50390625 C-527.13416531 585.10374231 -531.81614735 580.25160929 -536.5625 575.4375 C-543.48194103 568.33449614 -543.48194103 568.33449614 -550.86328125 561.7265625 C-560.49572191 553.68271435 -567.21013183 540.31641961 -569 528 C-570.26424368 509.47993911 -567.74910014 493.14782694 -555.16015625 478.64453125 C-552.19340687 475.34409356 -549.11319037 472.16174966 -546 469 C-545.25105469 468.22398437 -544.50210937 467.44796875 -543.73046875 466.6484375 C-540.75030858 463.60361902 -537.69867502 460.71067349 -534.45129395 457.95300293 C-529.06615105 453.25997344 -524.06381951 448.18799447 -519.02929688 443.12695312 C-517.94773904 442.04347225 -516.86595045 440.96022168 -515.78395081 439.87718201 C-513.46850119 437.55858986 -511.15460982 435.23845804 -508.8419342 432.917099 C-505.17894061 429.24049445 -501.5120566 425.56778629 -497.84460449 421.89562988 C-490.0600932 414.10005487 -482.27982379 406.30025263 -474.5 398.5 C-466.09879591 390.0767354 -457.69685164 381.65421708 -449.2900033 373.23658514 C-445.65042783 369.59205165 -442.01329886 365.94509992 -438.37807465 362.2962265 C-436.10999781 360.02064847 -433.83981341 357.74718178 -431.56907463 355.47426033 C-430.52337224 354.42669865 -429.4785281 353.37827938 -428.43464851 352.32890129 C-419.58150927 343.43063251 -419.58150927 343.43063251 -415.0057373 339.5057373 C-409.71193161 334.96391155 -404.85327636 329.976585 -399.9375 325.03515625 C-398.84609004 323.94182331 -397.75444937 322.84872064 -396.66259766 321.75582886 C-394.32586729 319.41595569 -391.99069515 317.0745427 -389.65673828 314.73190308 C-385.96013905 311.02169427 -382.25965061 307.31538059 -378.55859375 303.60961914 C-370.70275303 295.74271413 -362.85115385 287.87158209 -355 280 C-346.52180652 271.49974676 -338.04287327 263.00023931 -329.55903625 254.5056181 C-325.88600949 250.8276329 -322.21542921 247.14722923 -318.54675293 243.46490479 C-316.2579168 241.16856815 -313.96697371 238.87434222 -311.67547607 236.58066177 C-310.62009846 235.52342466 -309.5655792 234.46532983 -308.51202393 233.4062767 C-303.50506245 228.37402896 -298.45701738 223.46446081 -293.06690979 218.84106445 C-288.53338058 214.80290105 -284.30969443 210.42989713 -280.02929688 206.12695312 C-278.94773904 205.04347225 -277.86595045 203.96022168 -276.78395081 202.87718201 C-274.46850119 200.55858986 -272.15460982 198.23845804 -269.8419342 195.917099 C-266.17894061 192.24049445 -262.5120566 188.56778629 -258.84460449 184.89562988 C-251.0600932 177.10005487 -243.27982379 169.30025263 -235.5 161.5 C-227.09879591 153.0767354 -218.69685164 144.65421708 -210.2900033 136.23658514 C-206.65042783 132.59205165 -203.01329886 128.94509992 -199.37807465 125.2962265 C-197.10999781 123.02064847 -194.83981341 120.74718178 -192.56907463 118.47426033 C-191.52337224 117.42669865 -190.4785281 116.37827938 -189.43464851 115.32890129 C-184.42301647 110.29172208 -179.36836122 105.3771455 -173.9729805 100.7490921 C-170.01654507 97.24162208 -166.34027237 93.44321434 -162.62158203 89.6875 C-161.23708062 88.29582565 -159.85257716 86.90415335 -158.46799636 85.51255798 C-156.99487763 84.0310911 -155.52299183 82.54840866 -154.05139542 81.06542969 C-150.96844857 77.95920647 -147.88044162 74.85804639 -144.79147339 71.7578125 C-136.01332739 62.9464079 -127.23943201 54.13080151 -118.47607422 45.3046875 C-113.62455347 40.41850922 -108.76758148 35.53781767 -103.90462005 30.6630249 C-100.84051143 27.59087856 -97.78304804 24.51232256 -94.73049569 21.42869568 C-92.372221 19.05047751 -90.00394675 16.6822933 -87.63720703 14.3125 C-86.80675873 13.46969482 -85.97631042 12.62688965 -85.12069702 11.75854492 C-62.24026397 -11.04460704 -28.13207398 -19.08349531 0 0 Z " fill="#9D38F8" transform="translate(1019,198)"/>
<path d="M0 0 C3.69836745 2.85585642 7.00545358 6.08481387 10.31494141 9.37841797 C12.40062082 11.38552934 14.56200398 13.29700106 16.7265625 15.21875 C22.06139045 19.99479556 27.1021723 25.02453972 32.125 30.125 C38.85607747 36.99057701 38.85607747 36.99057701 45.9609375 43.4609375 C52.06276608 48.69435249 57.58331579 54.54146953 63.22265625 60.26171875 C67.02324371 64.09549911 70.79896765 67.90239493 74.8984375 71.41796875 C79.9974418 75.79093881 84.76256682 80.50333463 89.52783203 85.23266602 C90.59174473 86.28503212 91.66011614 87.33290979 92.73291016 88.3762207 C100.78046496 96.20384997 107.62670889 103.98244419 111.3125 114.8125 C111.61800781 115.68519531 111.92351562 116.55789063 112.23828125 117.45703125 C116.96157847 133.22557737 114.64645048 150.78190463 106.9375 165.125 C99.04622107 177.53285525 87.4431184 187.71641962 77.08325195 198.04711914 C74.80238023 200.32259584 72.52695025 202.60341717 70.25195312 204.88476562 C68.77896659 206.35709181 67.30567014 207.829108 65.83203125 209.30078125 C65.16412064 209.97071609 64.49621002 210.64065094 63.80805969 211.33088684 C63.16346298 211.97233139 62.51886627 212.61377594 61.85473633 213.2746582 C61.02514153 214.10305962 61.02514153 214.10305962 60.17878723 214.94819641 C58.305169 216.71261679 56.39211699 218.38455318 54.43901062 220.05900574 C49.08999582 224.71988173 44.12204508 229.75370713 39.12109375 234.78125 C38.04938803 235.85487881 36.97745152 236.92827727 35.90530396 238.00146484 C33.61113509 240.29877598 31.31852449 242.59762661 29.02713013 244.89770508 C25.39774218 248.54070539 21.76446259 252.17980801 18.13061523 255.81835938 C10.41743337 263.54260438 2.70849372 271.27107683 -5 279 C-13.32421468 287.34627595 -21.64916998 295.69180515 -29.97902966 304.03244781 C-33.58515384 307.6435296 -37.18883151 311.25702938 -40.79060364 314.87245178 C-43.03792116 317.12727122 -45.28734689 319.37997865 -47.53732681 321.63214111 C-48.57335398 322.67002735 -49.60852301 323.70877107 -50.6427269 324.74847412 C-59.41322942 333.56410811 -59.41322942 333.56410811 -63.99822998 337.49624634 C-69.24166314 341.99582139 -74.04528628 346.93823849 -78.90722656 351.84130859 C-79.98227594 352.92156205 -81.05757503 354.00156706 -82.13310242 355.0813446 C-84.43535554 357.39347924 -86.73612538 359.70707599 -89.03580475 362.02177048 C-92.68220339 365.69140756 -96.33362962 369.35601445 -99.98602295 373.01968384 C-110.36696495 383.43391324 -120.74371655 393.85229207 -131.10986328 404.28125 C-136.84548723 410.05154294 -142.5865741 415.81634287 -148.33364272 421.57523787 C-151.955829 425.20546033 -155.57138858 428.84211003 -159.18202162 432.48382163 C-161.44264126 434.76060354 -163.70968647 437.03090492 -165.97849464 439.29952431 C-167.0178373 440.34126068 -168.05465488 441.38552448 -169.08852959 442.43268776 C-178.82135936 452.28521743 -188.84740066 461.11091424 -202 466 C-202.80179688 466.31839844 -203.60359375 466.63679688 -204.4296875 466.96484375 C-220.21636202 472.3008381 -239.00440926 469.65354887 -253.6875 462.4375 C-259.60879209 458.94053663 -264.4581786 454.32657432 -269.36816406 449.56689453 C-271.0449281 447.95685989 -272.74764772 446.37966431 -274.4609375 444.80859375 C-282.40442274 437.51180821 -290.09453422 429.99414327 -297.65869141 422.30444336 C-300.97200071 418.95162718 -304.29823356 415.68856379 -307.87890625 412.62109375 C-314.0027578 407.35302955 -319.55559372 401.48665028 -325.22265625 395.73828125 C-329.6754235 391.24662521 -334.16381139 386.90221365 -338.96289062 382.78369141 C-356.85349934 367.11868813 -371.07287305 351.79968054 -373.33984375 327.33203125 C-373.77878262 311.51267428 -369.1456736 296.22422949 -358.22924805 284.55395508 C-357.75758807 284.04892613 -357.2859281 283.54389719 -356.7999754 283.02356434 C-350.12912736 275.93513338 -343.2196163 269.07567825 -336.33203125 262.19921875 C-334.84219565 260.70870759 -333.35250835 259.21804818 -331.86296082 257.72724915 C-328.76255451 254.62537953 -325.66037495 251.5252977 -322.55688477 248.42651367 C-318.59626846 244.47161386 -314.64018682 240.51221316 -310.68541431 236.55147076 C-307.61846596 233.48089672 -304.54912496 230.41272325 -301.47907066 227.3452549 C-300.0196176 225.88646451 -298.56089478 224.42694314 -297.10294533 222.96665001 C-295.06299506 220.92413781 -293.01982839 218.88489573 -290.97583008 216.84643555 C-290.38602356 216.2546048 -289.79621704 215.66277405 -289.1885376 215.05300903 C-286.29401484 212.17287474 -283.34976791 209.40995177 -280.24967957 206.75166321 C-274.92182222 202.13786342 -269.99652334 197.12034382 -265.02929688 192.12695312 C-263.94773904 191.04347225 -262.86595045 189.96022168 -261.78395081 188.87718201 C-259.46850119 186.55858986 -257.15460982 184.23845804 -254.8419342 181.917099 C-251.17894061 178.24049445 -247.5120566 174.56778629 -243.84460449 170.89562988 C-236.0600932 163.10005487 -228.27982379 155.30025263 -220.5 147.5 C-212.09879591 139.0767354 -203.69685164 130.65421708 -195.2900033 122.23658514 C-191.65042783 118.59205165 -188.01329886 114.94509992 -184.37807465 111.2962265 C-182.10999781 109.02064847 -179.83981341 106.74718178 -177.56907463 104.47426033 C-176.52337224 103.42669865 -175.4785281 102.37827938 -174.43464851 101.32890129 C-169.39746266 96.266038 -164.31804347 91.32206382 -158.89458084 86.67069244 C-155.40941778 83.59738174 -152.17178366 80.27625743 -148.90673828 76.97265625 C-148.14134735 76.20259247 -147.37595642 75.43252869 -146.58737183 74.63912964 C-144.93855518 72.97987535 -143.29084307 71.31952286 -141.64413834 69.65817261 C-139.03110685 67.02296157 -136.4139927 64.39187011 -133.79562378 61.76196289 C-126.3557009 54.28859412 -118.91994588 46.81112209 -111.49462891 39.32324219 C-106.94020409 34.73103035 -102.37837898 30.14628058 -97.8118248 25.56613159 C-96.0812112 23.82750205 -94.35337058 22.08610748 -92.6284523 20.34182739 C-90.20993887 17.89663597 -87.78208942 15.46107444 -85.35205078 13.02734375 C-84.65251282 12.31544891 -83.95297485 11.60355408 -83.23223877 10.87008667 C-60.99270637 -11.28122652 -27.12345197 -17.98820434 0 0 Z " fill="#9D38F8" transform="translate(1283,392)"/>
</svg>
